<svg xmlns="http://www.w3.org/2000/svg" version="1.1" xmlns:xlink="http://www.w3.org/1999/xlink" xmlns:svgjs="http://svgjs.dev/svgjs" width="1000" height="255" viewBox="0 0 1000 255"><g transform="matrix(1,0,0,1,0.16994382022460286,0.0943984729378684)"><svg viewBox="0 0 356 91" data-background-color="#ffffff" preserveAspectRatio="xMidYMid meet" height="255" width="1000" xmlns="http://www.w3.org/2000/svg" xmlns:xlink="http://www.w3.org/1999/xlink"><g id="tight-bounds" transform="matrix(1,0,0,1,-0.06049999999996203,-0.033687298185668624)"><svg viewBox="0 0 356.12052 91.06737459637134" height="91.06737459637134" width="356.12052"><g><svg viewBox="0 0 356.12052 91.06737459637134" height="91.06737459637134" width="356.12052"><g><svg viewBox="0 0 356.12052 91.06737459637134" height="91.06737459637134" width="356.12052"><g><path d="M0 91.067v-91.067h356.121v91.067z" fill="#fbfbfb" stroke="transparent" stroke-width="0" rx="0%" data-fill-palette-color="tertiary"></path><path d="M3.283 87.784v-84.501h349.554v84.501z" fill="#2e4aa5" stroke="transparent" stroke-width="0" rx="0%" data-fill-palette-color="quaternary"></path><path d="M9.85 81.218v-71.368h336.421v71.367z" fill="#fbfbfb" stroke="transparent" stroke-width="0" data-fill-palette-color="tertiary"></path></g><g transform="matrix(1,0,0,1,19.69974,19.69974)"><svg viewBox="0 0 316.72104 51.66789459637134" height="51.66789459637134" width="316.72104"><g><svg viewBox="0 0 316.72104 27.874730900105895" height="27.874730900105895" width="316.72104"><g transform="matrix(1,0,0,1,0,0)"><svg width="316.72104" viewBox="1.1700000762939453 -36.040000915527344 414.9599914550781 36.53000259399414" height="27.874730900105895" data-palette-color="#2e4aa5"><path d="M24.78-35.55L31.49-8.79 36.96-35.55 43.09-35.55 34.89 0 28.98 0 22.22-25.95 15.31 0 9.38 0 1.17-35.55 7.3-35.55 12.82-8.84 19.6-35.55 24.78-35.55ZM75.97-18.82L75.97-16.85Q75.97-11.62 74.17-7.68 72.36-3.74 69-1.62 65.65 0.49 61.28 0.49L61.28 0.49Q56.96 0.49 53.57-1.62 50.19-3.74 48.35-7.64 46.51-11.55 46.48-16.65L46.48-16.65 46.48-18.65Q46.48-23.85 48.33-27.83 50.17-31.81 53.53-33.92 56.88-36.04 61.23-36.04 65.57-36.04 68.93-33.95 72.29-31.86 74.12-27.94 75.95-24.02 75.97-18.82L75.97-18.82ZM69.8-16.85L69.8-18.7Q69.8-24.61 67.56-27.76 65.33-30.91 61.23-30.91L61.23-30.91Q57.22-30.91 54.97-27.77 52.71-24.63 52.66-18.9L52.66-18.9 52.66-16.85Q52.66-10.99 54.94-7.79 57.22-4.59 61.28-4.59L61.28-4.59Q65.38-4.59 67.59-7.71 69.8-10.84 69.8-16.85L69.8-16.85ZM110.49-18.82L110.49-16.85Q110.49-11.62 108.69-7.68 106.88-3.74 103.52-1.62 100.17 0.49 95.8 0.49L95.8 0.49Q91.47 0.49 88.09-1.62 84.71-3.74 82.87-7.64 81.03-11.55 81-16.65L81-16.65 81-18.65Q81-23.85 82.84-27.83 84.69-31.81 88.04-33.92 91.4-36.04 95.75-36.04 100.09-36.04 103.45-33.95 106.81-31.86 108.64-27.94 110.47-24.02 110.49-18.82L110.49-18.82ZM104.32-16.85L104.32-18.7Q104.32-24.61 102.08-27.76 99.85-30.91 95.75-30.91L95.75-30.91Q91.74-30.91 89.48-27.77 87.23-24.63 87.18-18.9L87.18-18.9 87.18-16.85Q87.18-10.99 89.46-7.79 91.74-4.59 95.8-4.59L95.8-4.59Q99.9-4.59 102.11-7.71 104.32-10.84 104.32-16.85L104.32-16.85ZM126.87 0L116.64 0 116.64-35.55 127.14-35.55Q131.85-35.55 135.5-33.45 139.15-31.35 141.15-27.49 143.16-23.63 143.16-18.65L143.16-18.65 143.16-16.87Q143.16-11.82 141.14-7.98 139.13-4.15 135.41-2.08 131.68 0 126.87 0L126.87 0ZM127.14-30.57L122.82-30.57 122.82-4.93 126.85-4.93Q131.71-4.93 134.31-7.97 136.91-11.01 136.96-16.7L136.96-16.7 136.96-18.68Q136.96-24.46 134.44-27.51 131.93-30.57 127.14-30.57L127.14-30.57ZM169.79-20L169.79-15.06 155.48-15.06 155.48 0 149.31 0 149.31-35.55 171.89-35.55 171.89-30.57 155.48-30.57 155.48-20 169.79-20ZM205.14-18.82L205.14-16.85Q205.14-11.62 203.33-7.68 201.53-3.74 198.17-1.62 194.81 0.49 190.44 0.49L190.44 0.49Q186.12 0.49 182.74-1.62 179.36-3.74 177.51-7.64 175.67-11.55 175.65-16.65L175.65-16.65 175.65-18.65Q175.65-23.85 177.49-27.83 179.33-31.81 182.69-33.92 186.05-36.04 190.39-36.04 194.74-36.04 198.1-33.95 201.45-31.86 203.28-27.94 205.11-24.02 205.14-18.82L205.14-18.82ZM198.96-16.85L198.96-18.7Q198.96-24.61 196.73-27.76 194.49-30.91 190.39-30.91L190.39-30.91Q186.39-30.91 184.13-27.77 181.87-24.63 181.82-18.9L181.82-18.9 181.82-16.85Q181.82-10.99 184.11-7.79 186.39-4.59 190.44-4.59L190.44-4.59Q194.54-4.59 196.75-7.71 198.96-10.84 198.96-16.85L198.96-16.85ZM231.48 0L224.35-13.7 217.47-13.7 217.47 0 211.29 0 211.29-35.55 223.79-35.55Q229.94-35.55 233.29-32.79 236.63-30.03 236.63-24.8L236.63-24.8Q236.63-21.24 234.91-18.84 233.19-16.43 230.11-15.14L230.11-15.14 238.1-0.32 238.1 0 231.48 0ZM217.47-30.57L217.47-18.65 223.81-18.65Q226.94-18.65 228.7-20.23 230.45-21.8 230.45-24.54L230.45-24.54Q230.45-27.39 228.83-28.96 227.21-30.52 223.98-30.57L223.98-30.57 217.47-30.57ZM252.72 0L242.49 0 242.49-35.55 252.99-35.55Q257.7-35.55 261.35-33.45 265-31.35 267-27.49 269-23.63 269-18.65L269-18.65 269-16.87Q269-11.82 266.99-7.98 264.97-4.15 261.25-2.08 257.53 0 252.72 0L252.72 0ZM252.99-30.57L248.66-30.57 248.66-4.93 252.69-4.93Q257.55-4.93 260.15-7.97 262.75-11.01 262.8-16.7L262.8-16.7 262.8-18.68Q262.8-24.46 260.29-27.51 257.77-30.57 252.99-30.57L252.99-30.57ZM300.56 0L287.6 0 287.6-35.55 299.78-35.55Q305.81-35.55 308.96-33.13 312.11-30.71 312.11-25.93L312.11-25.93Q312.11-23.49 310.79-21.53 309.47-19.58 306.94-18.51L306.94-18.51Q309.82-17.72 311.39-15.56 312.97-13.4 312.97-10.38L312.97-10.38Q312.97-5.37 309.76-2.69 306.54 0 300.56 0L300.56 0ZM301.15-16.04L293.78-16.04 293.78-4.93 300.64-4.93Q303.54-4.93 305.18-6.37 306.81-7.81 306.81-10.38L306.81-10.38Q306.81-15.92 301.15-16.04L301.15-16.04ZM293.78-30.57L293.78-20.58 299.83-20.58Q302.71-20.58 304.34-21.89 305.96-23.19 305.96-25.59L305.96-25.59Q305.96-28.22 304.46-29.39 302.96-30.57 299.78-30.57L299.78-30.57 293.78-30.57ZM341.94 0L339.04-8.28 325.27-8.28 322.39 0 315.97 0 329.39-35.55 334.94-35.55 348.39 0 341.94 0ZM332.15-28L327-13.26 337.3-13.26 332.15-28ZM380.61-35.55L380.61 0 374.44 0 358.59-25.22 358.59 0 352.41 0 352.41-35.55 358.59-35.55 374.48-10.23 374.48-35.55 380.61-35.55ZM408.81 0L398.11-15.36 394.09-11.08 394.09 0 387.91 0 387.91-35.55 394.09-35.55 394.09-18.87 397.5-23.1 407.9-35.55 415.38-35.55 402.17-19.8 416.13 0 408.81 0Z" opacity="1" transform="matrix(1,0,0,1,0,0)" fill="#2e4aa5" class="undefined-text-0" data-fill-palette-color="quaternary" id="text-0"></path></svg></g></svg></g><g transform="matrix(1,0,0,1,0,34.4413109001059)"><svg viewBox="0 0 316.72104 17.226583696265443" height="17.226583696265443" width="316.72104"><g transform="matrix(1,0,0,1,0,0)"><svg width="316.72104" viewBox="1.100000023841858 -35.04999923706055 855.8500366210938 46.54999923706055" height="17.226583696265443" data-palette-color="#2e4aa5"><path d="M13.8 0L1.1 0 1.1-0.5 2-0.85Q3-1.25 3.38-1.85 3.75-2.45 3.75-3.45L3.75-3.45 3.75-29.55Q3.75-30.6 3.38-31.2 3-31.8 2-32.15L2-32.15 1.1-32.5 1.1-33 15.45-33Q21.55-33 24.25-30.78 26.95-28.55 26.95-25.15L26.95-25.15Q26.95-22.6 24.98-20.53 23-18.45 18.2-17.6L18.2-17.6Q23.7-17 26.25-14.73 28.8-12.45 28.8-9.2L28.8-9.2Q28.8-7.6 28.1-5.98 27.4-4.35 25.73-3 24.05-1.65 21.15-0.83 18.25 0 13.8 0L13.8 0ZM11.15-32L11.15-17.65 13.3-17.65Q16.65-17.65 18.13-19.2 19.6-20.75 19.6-24.6L19.6-24.6Q19.6-28.6 18.25-30.3 16.9-32 13.85-32L13.85-32 11.15-32ZM11.15-16.65L11.15-1 13.65-1Q17.4-1 19.23-3 21.05-5 21.05-9.25L21.05-9.25Q21.05-13.25 19.3-14.95 17.55-16.65 13.55-16.65L13.55-16.65 11.15-16.65ZM51.47 0.75L51.47 0.75Q48.57 0.75 46.59-0.9 44.62-2.55 44.62-5.65L44.62-5.65Q44.62-8 47.02-9.98 49.42-11.95 54.57-12.95L54.57-12.95Q55.37-13.1 56.37-13.28 57.37-13.45 58.47-13.65L58.47-13.65 58.47-17.6Q58.47-21 57.64-22.38 56.82-23.75 55.07-23.75L55.07-23.75Q53.87-23.75 53.17-22.98 52.47-22.2 52.27-20.3L52.27-20.3 52.17-19.75Q52.07-17.6 51.12-16.6 50.17-15.6 48.77-15.6L48.77-15.6Q47.47-15.6 46.62-16.4 45.77-17.2 45.77-18.55L45.77-18.55Q45.77-20.6 47.19-22 48.62-23.4 50.97-24.1 53.32-24.8 56.07-24.8L56.07-24.8Q60.52-24.8 62.94-22.63 65.37-20.45 65.37-15.55L65.37-15.55 65.37-4.5Q65.37-2.25 67.47-2.25L67.47-2.25 68.57-2.25 69.02-1.85Q68.07-0.65 66.94 0 65.82 0.65 63.77 0.65L63.77 0.65Q61.57 0.65 60.29-0.38 59.02-1.4 58.62-3.1L58.62-3.1Q57.12-1.5 55.54-0.38 53.97 0.75 51.47 0.75ZM54.52-2.3L54.52-2.3Q55.52-2.3 56.39-2.78 57.27-3.25 58.47-4.25L58.47-4.25 58.47-12.65Q57.97-12.55 57.47-12.45 56.97-12.35 56.32-12.25L56.32-12.25Q54.02-11.65 52.64-10.23 51.27-8.8 51.27-6.4L51.27-6.4Q51.27-4.35 52.22-3.33 53.17-2.3 54.52-2.3ZM95.08 0L83.33 0 83.33-0.5 84.03-0.7Q85.78-1.2 85.78-3.15L85.78-3.15 85.78-18.8Q85.78-19.9 85.43-20.43 85.08-20.95 84.08-21.15L84.08-21.15 83.33-21.35 83.33-21.85 91.88-24.75 92.38-24.25 92.78-21.25Q94.53-22.8 96.73-23.8 98.93-24.8 101.08-24.8L101.08-24.8Q104.38-24.8 106.16-23 107.93-21.2 107.93-17.5L107.93-17.5 107.93-3.1Q107.93-1.15 109.83-0.65L109.83-0.65 110.28-0.5 110.28 0 98.48 0 98.48-0.5 99.13-0.7Q100.88-1.25 100.88-3.15L100.88-3.15 100.88-19.1Q100.88-22.3 97.68-22.3L97.68-22.3Q95.48-22.3 92.88-20.1L92.88-20.1 92.88-3.1Q92.88-1.15 94.63-0.65L94.63-0.65 95.08-0.5 95.08 0ZM137.55 0L125.6 0 125.6-0.5 126.35-0.75Q128.05-1.3 128.05-3.2L128.05-3.2 128.05-29.95Q128.05-30.95 127.65-31.45 127.25-31.95 126.25-32.25L126.25-32.25 125.6-32.4 125.6-32.9 134.75-35.05 135.35-34.6 135.2-27.6 135.2-3.2Q135.2-1.2 136.85-0.7L136.85-0.7 137.55-0.5 137.55 0ZM152.95 0L144.15 0 135.25-12.5 144.5-21.05Q145.15-21.65 145.27-22.33 145.4-23 144.4-23.3L144.4-23.3 143.55-23.55 143.55-24.05 151-24.05 151-23.55 149.5-23.15Q148.4-22.8 147.72-22.33 147.05-21.85 146.1-21L146.1-21 140.5-15.75 149.45-3.3Q150.25-2.2 150.95-1.6 151.65-1 152.75-0.6L152.75-0.6 152.95-0.5 152.95 0ZM173.86-27.4L173.86-27.4Q172.16-27.4 170.99-28.48 169.81-29.55 169.81-31.2L169.81-31.2Q169.81-32.9 170.99-33.95 172.16-35 173.86-35L173.86-35Q175.56-35 176.71-33.95 177.86-32.9 177.86-31.2L177.86-31.2Q177.86-29.55 176.71-28.48 175.56-27.4 173.86-27.4ZM179.66 0L167.96 0 167.96-0.5 168.66-0.7Q169.66-1 170.04-1.6 170.41-2.2 170.41-3.2L170.41-3.2 170.41-18.85Q170.41-19.9 170.04-20.43 169.66-20.95 168.66-21.15L168.66-21.15 167.96-21.3 167.96-21.8 177.11-24.75 177.61-24.25 177.46-17.15 177.46-3.15Q177.46-2.15 177.84-1.55 178.21-0.95 179.16-0.65L179.16-0.65 179.66-0.5 179.66 0ZM206.88 0L195.13 0 195.13-0.5 195.83-0.7Q197.58-1.2 197.58-3.15L197.58-3.15 197.58-18.8Q197.58-19.9 197.23-20.43 196.88-20.95 195.88-21.15L195.88-21.15 195.13-21.35 195.13-21.85 203.68-24.75 204.18-24.25 204.58-21.25Q206.33-22.8 208.53-23.8 210.73-24.8 212.88-24.8L212.88-24.8Q216.18-24.8 217.95-23 219.73-21.2 219.73-17.5L219.73-17.5 219.73-3.1Q219.73-1.15 221.63-0.65L221.63-0.65 222.08-0.5 222.08 0 210.28 0 210.28-0.5 210.93-0.7Q212.68-1.25 212.68-3.15L212.68-3.15 212.68-19.1Q212.68-22.3 209.48-22.3L209.48-22.3Q207.28-22.3 204.68-20.1L204.68-20.1 204.68-3.1Q204.68-1.15 206.43-0.65L206.43-0.65 206.88-0.5 206.88 0ZM248.19-8.65L248.19-8.65Q244.74-8.65 242.34-9.8L242.34-9.8 242.34-8.1Q242.34-6.55 243.89-6.25L243.89-6.25 253.29-4.5Q255.64-4.05 257.54-3.33 259.44-2.6 260.59-1.28 261.74 0.05 261.74 2.35L261.74 2.35Q261.74 4.8 260.14 6.88 258.54 8.95 255.42 10.23 252.29 11.5 247.64 11.5L247.64 11.5Q243.64 11.5 241.29 10.68 238.94 9.85 237.97 8.55 236.99 7.25 236.99 5.8L236.99 5.8Q236.99 4 238.22 2.18 239.44 0.35 241.24-0.75L241.24-0.75Q239.69-1.35 238.99-2.3 238.29-3.25 238.29-4.35L238.29-4.35Q238.29-5.35 238.82-6.23 239.34-7.1 240.09-8L240.09-8 241.74-10.1Q238.09-12.2 238.09-16.7L238.09-16.7Q238.09-20.3 240.67-22.55 243.24-24.8 248.24-24.8L248.24-24.8Q250.79-24.8 252.72-24.2 254.64-23.6 255.89-22.5L255.89-22.5Q257.49-22.75 258.92-23.33 260.34-23.9 261.49-24.9L261.49-24.9 262.19-24.4 262.19-21.85 256.54-21.85Q258.34-19.85 258.34-16.7L258.34-16.7Q258.34-13.2 255.77-10.93 253.19-8.65 248.19-8.65ZM248.14-9.65L248.14-9.65Q250.14-9.65 251.07-11.3 251.99-12.95 251.99-16.8L251.99-16.8Q251.99-20.65 251.07-22.23 250.14-23.8 248.24-23.8L248.24-23.8Q246.39-23.8 245.44-22.18 244.49-20.55 244.49-16.7L244.49-16.7Q244.49-12.85 245.37-11.25 246.24-9.65 248.14-9.65ZM240.69 4.2L240.69 4.2Q240.69 7.15 242.52 8.65 244.34 10.15 248.29 10.15L248.29 10.15Q252.44 10.15 254.54 8.8 256.64 7.45 256.64 5L256.64 5Q256.64 3.6 255.62 2.75 254.59 1.9 252.14 1.45L252.14 1.45 243.09-0.25Q242.69-0.35 242.29-0.45L242.29-0.45Q241.59 0.55 241.14 1.83 240.69 3.1 240.69 4.2ZM315.52 0.15L312.07 0.15 303.22-29.6Q302.87-30.75 302.47-31.28 302.07-31.8 301.07-32.25L301.07-32.25 300.47-32.5 300.47-33 313.72-33 313.72-32.5 312.67-32.1Q311.52-31.65 311.12-31 310.72-30.35 311.07-29.2L311.07-29.2 316.52-8.4 322.42-25.85 321.27-29.4Q320.92-30.45 320.62-31 320.32-31.55 319.62-31.9L319.62-31.9 318.52-32.5 318.52-33 331.07-33 331.07-32.5 329.52-31.9Q328.52-31.55 328.4-30.88 328.27-30.2 328.62-29.15L328.62-29.15 334.97-7.9 340.97-28.75Q341.32-29.95 341.22-30.85 341.12-31.75 339.97-32.15L339.97-32.15 338.92-32.5 338.92-33 345.87-33 345.87-32.5 344.57-32Q343.57-31.65 343.17-30.9 342.77-30.15 342.47-29.05L342.47-29.05 334.17 0.15 330.72 0.15 323.22-23.35 315.52 0.15ZM366.59-27.4L366.59-27.4Q364.89-27.4 363.71-28.48 362.54-29.55 362.54-31.2L362.54-31.2Q362.54-32.9 363.71-33.95 364.89-35 366.59-35L366.59-35Q368.29-35 369.44-33.95 370.59-32.9 370.59-31.2L370.59-31.2Q370.59-29.55 369.44-28.48 368.29-27.4 366.59-27.4ZM372.39 0L360.69 0 360.69-0.5 361.39-0.7Q362.39-1 362.76-1.6 363.14-2.2 363.14-3.2L363.14-3.2 363.14-18.85Q363.14-19.9 362.76-20.43 362.39-20.95 361.39-21.15L361.39-21.15 360.69-21.3 360.69-21.8 369.84-24.75 370.34-24.25 370.19-17.15 370.19-3.15Q370.19-2.15 370.56-1.55 370.94-0.95 371.89-0.65L371.89-0.65 372.39-0.5 372.39 0ZM397.35 0.75L397.35 0.75Q394.15 0.75 392.38-0.85 390.6-2.45 390.6-5.95L390.6-5.95 390.6-23.05 387.15-23.05 387.15-23.55 388.35-23.75Q389.9-24.1 391.03-24.75 392.15-25.4 393.25-26.5L393.25-26.5 397.35-31.05 397.85-31.05 397.7-24.05 403.3-24.05 403.3-23.05 397.65-23.05 397.65-5.05Q397.65-3.3 398.43-2.4 399.2-1.5 400.4-1.5L400.4-1.5Q401.45-1.5 402.25-2.02 403.05-2.55 403.85-3.45L403.85-3.45 404.35-2.95Q403.35-1.25 401.6-0.25 399.85 0.75 397.35 0.75ZM431.02 0L419.32 0 419.32-0.5 419.92-0.7Q421.72-1.3 421.72-3.2L421.72-3.2 421.72-29.9Q421.72-30.95 421.37-31.45 421.02-31.95 420.02-32.2L420.02-32.2 419.27-32.4 419.27-32.9 428.07-35.05 428.87-34.6 428.67-27.55 428.67-21.3Q430.42-22.75 432.44-23.78 434.47-24.8 436.92-24.8L436.92-24.8Q440.17-24.8 442.09-22.95 444.02-21.1 444.02-17.25L444.02-17.25 444.02-3.15Q444.02-2.15 444.42-1.55 444.82-0.95 445.82-0.65L445.82-0.65 446.22-0.5 446.22 0 434.52 0 434.52-0.5 435.12-0.65Q436.92-1.25 436.92-3.2L436.92-3.2 436.92-18.9Q436.92-20.9 436.24-21.65 435.57-22.4 433.87-22.4L433.87-22.4Q432.77-22.4 431.47-21.98 430.17-21.55 428.82-20.5L428.82-20.5 428.82-3.1Q428.82-1.15 430.62-0.6L430.62-0.6 431.02-0.5 431.02 0ZM474.08 0.75L474.08 0.75Q470.28 0.75 467.48-0.83 464.68-2.4 463.16-5.3 461.63-8.2 461.63-12.1L461.63-12.1Q461.63-16 463.26-18.85 464.88-21.7 467.71-23.25 470.53-24.8 474.08-24.8L474.08-24.8Q477.63-24.8 480.43-23.28 483.23-21.75 484.86-18.9 486.48-16.05 486.48-12.1L486.48-12.1Q486.48-8.15 484.96-5.28 483.43-2.4 480.66-0.83 477.88 0.75 474.08 0.75ZM474.08-0.25L474.08-0.25Q475.83-0.25 476.88-1.25 477.93-2.25 478.41-4.8 478.88-7.35 478.88-12L478.88-12Q478.88-16.7 478.41-19.25 477.93-21.8 476.88-22.8 475.83-23.8 474.08-23.8L474.08-23.8Q472.33-23.8 471.26-22.8 470.18-21.8 469.71-19.25 469.23-16.7 469.23-12L469.23-12Q469.23-7.35 469.71-4.8 470.18-2.25 471.26-1.25 472.33-0.25 474.08-0.25ZM511 0.75L511 0.75Q509.05 0.75 507.42 0 505.8-0.75 504.87-2.43 503.95-4.1 504-6.85L504-6.85 504.15-19.7Q504.15-20.85 503.75-21.35 503.35-21.85 502.5-22.05L502.5-22.05 501.9-22.25 501.9-22.75 510.85-24.5 511.35-24 511.1-16.9 511.1-4.85Q511.1-3.25 512.02-2.5 512.95-1.75 514.35-1.75L514.35-1.75Q515.75-1.75 516.85-2.15 517.95-2.55 519.05-3.35L519.05-3.35 519.25-19.65Q519.25-20.8 518.9-21.28 518.55-21.75 517.6-21.95L517.6-21.95 517.1-22.1 517.1-22.6 525.85-24.5 526.35-24 526.2-16.9 526.2-3.35Q526.2-2.25 526.5-1.65 526.8-1.05 527.8-0.65L527.8-0.65 528.3-0.5 528.3 0 519.55 0.5 519.1-2.45Q517.45-1.1 515.52-0.18 513.6 0.75 511 0.75ZM553.06 0.75L553.06 0.75Q549.86 0.75 548.09-0.85 546.31-2.45 546.31-5.95L546.31-5.95 546.31-23.05 542.86-23.05 542.86-23.55 544.06-23.75Q545.61-24.1 546.74-24.75 547.86-25.4 548.96-26.5L548.96-26.5 553.06-31.05 553.56-31.05 553.41-24.05 559.01-24.05 559.01-23.05 553.36-23.05 553.36-5.05Q553.36-3.3 554.14-2.4 554.91-1.5 556.11-1.5L556.11-1.5Q557.16-1.5 557.96-2.02 558.76-2.55 559.56-3.45L559.56-3.45 560.06-2.95Q559.06-1.25 557.31-0.25 555.56 0.75 553.06 0.75ZM608.54 0.75L608.54 0.75Q605.34 0.75 603.57-0.85 601.79-2.45 601.79-5.95L601.79-5.95 601.79-23.05 598.34-23.05 598.34-23.55 599.54-23.75Q601.09-24.1 602.22-24.75 603.34-25.4 604.44-26.5L604.44-26.5 608.54-31.05 609.04-31.05 608.89-24.05 614.49-24.05 614.49-23.05 608.84-23.05 608.84-5.05Q608.84-3.3 609.62-2.4 610.39-1.5 611.59-1.5L611.59-1.5Q612.64-1.5 613.44-2.02 614.24-2.55 615.04-3.45L615.04-3.45 615.54-2.95Q614.54-1.25 612.79-0.25 611.04 0.75 608.54 0.75ZM642.21 0L630.51 0 630.51-0.5 631.11-0.7Q632.91-1.3 632.91-3.2L632.91-3.2 632.91-29.9Q632.91-30.95 632.56-31.45 632.21-31.95 631.21-32.2L631.21-32.2 630.46-32.4 630.46-32.9 639.26-35.05 640.06-34.6 639.86-27.55 639.86-21.3Q641.61-22.75 643.63-23.78 645.66-24.8 648.11-24.8L648.11-24.8Q651.36-24.8 653.28-22.95 655.21-21.1 655.21-17.25L655.21-17.25 655.21-3.15Q655.21-2.15 655.61-1.55 656.01-0.95 657.01-0.65L657.01-0.65 657.41-0.5 657.41 0 645.71 0 645.71-0.5 646.31-0.65Q648.11-1.25 648.11-3.2L648.11-3.2 648.11-18.9Q648.11-20.9 647.43-21.65 646.76-22.4 645.06-22.4L645.06-22.4Q643.96-22.4 642.66-21.98 641.36-21.55 640.01-20.5L640.01-20.5 640.01-3.1Q640.01-1.15 641.81-0.6L641.81-0.6 642.21-0.5 642.21 0ZM685.17-24.8L685.17-24.8Q688.42-24.8 690.72-23.48 693.02-22.15 694.25-19.88 695.47-17.6 695.47-14.7L695.47-14.7Q695.47-14.15 695.42-13.58 695.37-13 695.22-12.55L695.22-12.55 680.32-12.55Q680.37-7.15 682.25-4.78 684.12-2.4 687.82-2.4L687.82-2.4Q690.32-2.4 691.87-3.2 693.42-4 694.77-5.55L694.77-5.55 695.27-5.1Q693.72-2.35 691.15-0.8 688.57 0.75 684.97 0.75L684.97 0.75Q681.42 0.75 678.67-0.78 675.92-2.3 674.37-5.15 672.82-8 672.82-11.95L672.82-11.95Q672.82-16.05 674.62-18.93 676.42-21.8 679.25-23.3 682.07-24.8 685.17-24.8ZM685.02-23.8L685.02-23.8Q683.57-23.8 682.55-22.93 681.52-22.05 680.95-19.83 680.37-17.6 680.32-13.55L680.32-13.55 688.87-13.55Q689.37-19 688.47-21.4 687.57-23.8 685.02-23.8ZM748.2 0L735.5 0 735.5-0.5 736.4-0.85Q737.4-1.25 737.78-1.85 738.15-2.45 738.15-3.45L738.15-3.45 738.15-29.55Q738.15-30.6 737.78-31.2 737.4-31.8 736.4-32.15L736.4-32.15 735.5-32.5 735.5-33 749.85-33Q755.95-33 758.65-30.78 761.35-28.55 761.35-25.15L761.35-25.15Q761.35-22.6 759.38-20.53 757.4-18.45 752.6-17.6L752.6-17.6Q758.1-17 760.65-14.73 763.2-12.45 763.2-9.2L763.2-9.2Q763.2-7.6 762.5-5.98 761.8-4.35 760.13-3 758.45-1.65 755.55-0.83 752.65 0 748.2 0L748.2 0ZM745.55-32L745.55-17.65 747.7-17.65Q751.05-17.65 752.53-19.2 754-20.75 754-24.6L754-24.6Q754-28.6 752.65-30.3 751.3-32 748.25-32L748.25-32 745.55-32ZM745.55-16.65L745.55-1 748.05-1Q751.8-1 753.63-3 755.45-5 755.45-9.25L755.45-9.25Q755.45-13.25 753.7-14.95 751.95-16.65 747.95-16.65L747.95-16.65 745.55-16.65ZM785.07 0.75L785.07 0.75Q783.27 0.75 782.02-0.5 780.77-1.75 780.77-3.5L780.77-3.5Q780.77-5.25 782.02-6.55 783.27-7.85 785.07-7.85L785.07-7.85Q786.87-7.85 788.12-6.55 789.37-5.25 789.37-3.5L789.37-3.5Q789.37-1.75 788.12-0.5 786.87 0.75 785.07 0.75ZM817.68 0.9L817.68 0.9Q814.93 0.9 812.08 0.23 809.23-0.45 807.33-1.55L807.33-1.55 807.58-8.35 808.08-8.35 809.63-5.1Q810.33-3.7 811.13-2.63 811.93-1.55 813.33-0.95L813.33-0.95Q814.33-0.45 815.26-0.28 816.18-0.1 817.33-0.1L817.33-0.1Q820.38-0.1 822.16-1.75 823.93-3.4 823.93-6L823.93-6Q823.93-8.45 822.73-9.83 821.53-11.2 818.88-12.5L818.88-12.5 816.83-13.4Q812.53-15.3 810.11-17.78 807.68-20.25 807.68-24.35L807.68-24.35Q807.68-27.3 809.21-29.45 810.73-31.6 813.46-32.75 816.18-33.9 819.83-33.9L819.83-33.9Q822.48-33.9 824.86-33.2 827.23-32.5 828.98-31.3L828.98-31.3 828.68-25.3 828.18-25.3 826.13-29.05Q825.28-30.8 824.43-31.53 823.58-32.25 822.48-32.55L822.48-32.55Q821.83-32.75 821.28-32.83 820.73-32.9 819.88-32.9L819.88-32.9Q817.33-32.9 815.58-31.43 813.83-29.95 813.83-27.45L813.83-27.45Q813.83-24.9 815.18-23.38 816.53-21.85 819.13-20.65L819.13-20.65 821.43-19.65Q826.23-17.55 828.33-15.18 830.43-12.8 830.43-9.05L830.43-9.05Q830.43-4.65 827.11-1.88 823.78 0.9 817.68 0.9ZM852.65 0.75L852.65 0.75Q850.85 0.75 849.6-0.5 848.35-1.75 848.35-3.5L848.35-3.5Q848.35-5.25 849.6-6.55 850.85-7.85 852.65-7.85L852.65-7.85Q854.45-7.85 855.7-6.55 856.95-5.25 856.95-3.5L856.95-3.5Q856.95-1.75 855.7-0.5 854.45 0.75 852.65 0.75Z" opacity="1" transform="matrix(1,0,0,1,0,0)" fill="#2e4aa5" class="undefined-text-1" data-fill-palette-color="quaternary" id="text-1"></path></svg></g></svg></g></svg></g></svg></g><g></g></svg></g><defs></defs></svg><rect width="356.12052" height="91.06737459637134" fill="none" stroke="none" visibility="hidden"></rect></g></svg></g></svg>